<?xml version="1.0" encoding="utf-8"?>
<!-- Generator: Adobe Illustrator 23.0.3, SVG Export Plug-In . SVG Version: 6.00 Build 0)  -->
<svg version="1.1" id="Layer_1" xmlns="http://www.w3.org/2000/svg" xmlns:xlink="http://www.w3.org/1999/xlink" x="0px" y="0px"
	 viewBox="0 0 415.5 169" style="enable-background:new 0 0 415.5 169;" xml:space="preserve">
<style type="text/css">
	.st0{fill:#FFFFFF;}
</style>
<title>vans-logo</title>
<path class="st0" d="M17.5,148.7h-6.3L10,135.2h6.3L17.5,148.7z M398,148.7h6.3l1.2-13.5h-6.3L398,148.7z M6.3,135.2H0l1.2,13.5h6.3
	L6.3,135.2z M408,148.7h6.3l1.2-13.5h-6.3L408,148.7z M49.3,151.9c0.2,4.7-3.5,8.6-8.2,8.8c-0.1,0-0.3,0-0.4,0
	c-4.8,0-8.6-3.9-8.6-8.7c0-0.1,0-0.2,0-0.2v-0.1c0-4.8,3.4-8.8,8.5-8.8c4.8,0,8.6,3.9,8.6,8.7C49.3,151.7,49.3,151.8,49.3,151.9
	L49.3,151.9 M22.6,151.9c0,9.5,7.7,17.1,18,17.1s18.2-7.7,18.2-17.2v-0.1c0-9.5-7.7-17.1-18-17.1S22.6,142.4,22.6,151.9L22.6,151.9
	 M64.6,168.4h9.3v-11.8h15.9V149H73.9v-5.6h17.6v-8H64.6L64.6,168.4L64.6,168.4z M96.9,168.4h9.3v-11.8h15.9V149h-15.9v-5.6h17.6v-8
	H96.9L96.9,168.4L96.9,168.4z M150,168.4h9.3v-25h10.1v-8h-29.5v8H150L150,168.4L150,168.4z M175.5,168.4h9.3v-12.6h12v12.5h9.3v-33
	h-9.3v12.4h-12v-12.4h-9.3V168.4L175.5,168.4z M212.4,168.4h27.3v-7.8h-18.1v-5.2h16.1v-7.2h-16.1v-5h17.8v-7.8h-27L212.4,168.4
	L212.4,168.4z M265.2,168.6h8.1l6.7-19l6.8,19h8.1l11.2-33.3h-9.6l-5.9,19.1l-6.5-19.2h-8l-6.5,19.2l-5.9-19.1H254L265.2,168.6z
	 M317.1,155.3l3.8-9.4l3.7,9.4H317.1L317.1,155.3z M302.2,168.3h9.8l2.4-5.9h13l2.5,5.9h10l-14.3-33.3h-9L302.2,168.3z M344.2,168.3
	h25.6v-8h-16.2v-25h-9.3L344.2,168.3L344.2,168.3z M374.9,168.3h25.6v-8h-16.2v-25H375L374.9,168.3L374.9,168.3z"/>
<path class="st0" d="M360.2,52.2h-18.1c-1.8-4.4-3.7-7.9-13.8-7.9c-7,0-10,2.9-10,5.8c0,3.2,2.5,5.8,10.2,7.5l16.4,4.4
	c10.7,2.9,15.9,11.4,15.9,20.3c0,5-1.1,11-5.8,16c-3.5,3.7-8.9,8.6-26.7,8.6c-24.4,0-32.5-15.4-32.5-24.8h19
	c1.9,6.8,6.5,9.4,15.8,9.4c6.4,0,11.9-2.3,11.9-7.2c0-4.7-4-6.4-9.1-7.8L320.5,73c-6.2-1.9-11.4-3.4-15.1-6.5
	c-9.6-8.2-8.9-22.9,1.5-30.6c5.8-4.2,11.7-6.4,21.2-6.4c11.1,0,17.4,3.2,22.4,6.6C354.9,39.1,360.1,46.5,360.2,52.2 M55.1,0
	c0.2,0.6,37.8,106,37.8,106h22.5L150,18.3h215L366.6,0H133.5l-28.7,72.7L79,0L55.1,0 M241,68.1l28.1,37.9h17.6V31.1h-20.2v40.8
	L241,31.1h-19.4V106H241V68.1L241,68.1z M367.4,102.1c0-2.2-1.8-4-4-4s-4,1.8-4,4s1.8,4,4,4C365.6,106.1,367.4,104.3,367.4,102.1
	C367.4,102.1,367.4,102.1,367.4,102.1L367.4,102.1z M366.9,102.1c0,1.9-1.6,3.5-3.5,3.5c-1.9,0-3.5-1.6-3.5-3.5s1.6-3.5,3.5-3.5
	C365.3,98.5,366.9,100.1,366.9,102.1C367,102,367,102.1,366.9,102.1L366.9,102.1z M365.3,101.3c0-0.8-0.7-1.4-1.4-1.4
	c-0.1,0-0.1,0-0.2,0h-1.9v4.2h0.9v-1.4h0.7l0.9,1.4h1.1l-1-1.5C365,102.4,365.4,101.9,365.3,101.3L365.3,101.3z M364.3,101.3
	c0,0.3-0.3,0.6-0.6,0.6c0,0-0.1,0-0.1,0h-0.9v-1.2h0.9c0.3-0.1,0.7,0.1,0.8,0.4C364.4,101.2,364.4,101.3,364.3,101.3L364.3,101.3z
	 M134,106h21.6l4-11.7h28.5l4.1,11.7h21.2l-27.2-74.9h-22.9L134,106z M165.6,80.7l8.4-24.9l8.2,24.9H165.6L165.6,80.7z"/>
</svg>
