<svg width="27" height="25" viewBox="0 0 27 25" fill="none" xmlns="http://www.w3.org/2000/svg">
<path d="M20.75 19.5H10.25L9.59998 16.9H23.32L26.26 5.12999H6.65002L5.62 0.98999H0.0999756V2.52999H4.41998L8.67999 19.55C7.43999 19.82 6.51001 20.92 6.51001 22.24C6.51001 23.76 7.74001 24.99 9.26001 24.99C10.78 24.99 12.01 23.76 12.01 22.24C12.01 21.81 11.91 21.4 11.73 21.03H18.29C18.11 21.39 18.01 21.8 18.01 22.24C18.01 23.76 19.24 24.99 20.76 24.99C22.28 24.99 23.51 23.76 23.51 22.24C23.5 20.74 22.27 19.5 20.75 19.5ZM7.04999 6.67999H24.3L22.13 15.37H9.22998L7.04999 6.67999ZM9.26001 23.46C8.59001 23.46 8.04999 22.92 8.04999 22.25C8.04999 21.58 8.59001 21.04 9.26001 21.04C9.93001 21.04 10.47 21.58 10.47 22.25C10.47 22.92 9.92001 23.46 9.26001 23.46ZM20.75 23.46C20.08 23.46 19.54 22.92 19.54 22.25C19.54 21.58 20.08 21.04 20.75 21.04C21.42 21.04 21.96 21.58 21.96 22.25C21.96 22.92 21.42 23.46 20.75 23.46Z" fill="white"/>
</svg>
